<svg height="100" width="220"><path d="M86.7 4.8a34.4 34.4 0 0 0-19.3 6.7c-2 1.6-2-3.5.3 43a179.2 179.2 0 0 1-2.5 44.4c0 1 .8 1.1 9.6 1.1 7.5 0 9.6-.2 9.6-.8 0-.4-.6-5.5-1.5-11.2-2.4-17-3.7-27.3-3.3-27.7.2-.2 2.6-.9 5.3-1.5 15.7-3.7 23.7-13.7 22.2-28-1.6-17-8.8-26-20.4-26zm-1.2 13.6c5 0 8 5 8 13.9 0 8.4-2.2 12-8.9 15.1-5.5 2.6-5.1 3.5-5.1-13.2 0-16.5-.5-15 5-15.8h1z" fill="#ae4faf"/><path d="M194.7 69.2a5.5 5.5 0 0 0-2.4.5c-4 1.9-3.6 10.2.5 11.8 5 2 8.5 0 8.5-4.5 0-4.4-3.1-7.7-6.6-7.8zm18.2 0c-1.4 0-2.6.4-3.5 1.2-2.7 2.7-2 9.1 1.2 10.8 2.2 1.2 6.8 1.2 8.2 0 1.5-1.4 1.6-6.5.2-8.6a7.9 7.9 0 0 0-6.1-3.3zm-37.3.3c-3.8 0-5.4 3.7-3.7 9.7.2.6 1 1.5 2 2 2.5 1.4 6.7 1.2 8.2-.3 2.8-2.8.8-9.2-3.5-10.8a8.6 8.6 0 0 0-3-.6z" fill="#23b04c"/><path d="M139.2 2c-15 .2-22.6 8.1-23.5 24.9-.8 15.3 5.3 26.6 16.7 30.6 6.8 2.4 17 1.3 22.5-2.4a28.4 28.4 0 0 0 8.5-15c0-.2-3.3-.4-7.3-.3-7.3.2-7.3.2-7 3 .2 5.4-3.3 8.8-9.2 8.9-5 0-6.7-3.5-7.4-15-.4-6.9-.4-6.9 15-6.9 17 0 16.5.3 14.6-8.7-2.7-12.4-9.8-18.8-21.4-19h-1.5zm-4.9 7.2c1.9 0 4 .5 6 1.6 4.2 2 6 10 2.5 10.7-1 .2-5.3.3-9.3.3-7.4 0-7.4 0-7.4-3 0-5.9 3.4-9.5 8.2-9.6z" fill="#fec90d"/><path d="M31 0C20.6 0 17 1 9.8 5.8-8.7 18.3.5 49 24.5 54.8c21.3 5 37.7-7.5 36-27.7C59.5 15.2 54 6.6 44 2 40 0 39.8 0 31 0zm-6 5.8c9.4 0 16.9 7.1 20.7 19.7 3.4 11 2.3 15.3-4.8 19.8-4.3 2.8-7 2.5-14.3-1.5-6.8-3.8-8.8-6.4-11.5-14.8-4.3-13.5-.2-23.2 9.9-23.2z" fill="#ed1b24"/></svg>